<?xml version="1.0" encoding="UTF-8"?> <svg xmlns="http://www.w3.org/2000/svg" xmlns:svg="http://www.w3.org/2000/svg" width="617" height="114" version="1.1" xml:space="preserve"> <g class="layer"> <title>Layer 1</title> <g id="svg_1"> <g id="svg_2"> <path d="m0,88.07l0,-2.64c10.24,0 11.67,-1.98 11.67,-8.7l0,-65.39c0,-6.71 -1.43,-8.7 -11.67,-8.7l0,-2.64l34.46,0c16.07,0 26.75,7.05 26.75,21.8c0,12.22 -8.04,19.38 -18.71,20.7l0,0.55c13.76,0.88 22.79,9.47 22.79,21.36c0,17.39 -14.31,23.67 -31.93,23.67l-33.36,0l0,-0.01zm23.89,-47.78c2.75,0.44 5.61,0.44 8.26,0.44c9.03,0 16.96,-5.72 16.96,-18.5c0,-12.55 -8.04,-17.72 -16.73,-17.72c-2.09,0 -4.4,0.11 -6.28,0.55c-1.54,0.33 -2.2,1.32 -2.2,2.86l0,32.37l-0.01,0zm0,39.85c0,2.64 2.86,3.41 8.04,3.41c10.35,0 21.03,-3.85 21.03,-19.05c0,-15.19 -12.22,-19.27 -20.7,-19.27c-2.86,0 -5.61,0 -8.37,0.44l0,34.47z" id="svg_3"></path> <path d="m72.77,59.12c0,-17.72 8.7,-31.38 23.67,-31.38c14.2,0 23.67,12.66 23.67,30.71c0,17.73 -8.81,31.38 -23.67,31.38c-14.31,0 -23.67,-12.66 -23.67,-30.71zm36.22,5.83c0,-14.97 -4.51,-32.37 -14.2,-32.37c-7.82,0 -11.01,10.35 -11.01,20.04c0,14.97 4.62,32.37 14.31,32.37c7.81,0 10.9,-10.35 10.9,-20.04z" id="svg_4"></path> <path d="m135.08,85.87c-1.43,-1.1 -2.31,-0.77 -2.97,0.55l-0.88,2.2l-2.42,0l-0.77,-23.78l2.42,0c1.65,13.1 7.93,20.37 15.52,20.37c5.17,0 7.93,-3.52 7.93,-9.14c0,-4.95 -2.31,-7.05 -12.55,-15.3c-9.36,-7.38 -12.55,-11.67 -12.55,-17.95c0,-9.14 6.61,-15.08 15.3,-15.08c4.96,0 8.37,2.09 10.35,3.74c1.43,1.32 2.53,0.77 2.86,-0.55l0.66,-2.42l2.53,0l0.44,19.27l-2.42,0c-1.32,-8.59 -6.16,-15.41 -13.54,-15.41c-4.4,0 -7.27,2.97 -7.27,7.38c0,4.62 2.86,7.05 10.57,13.1c9.91,7.82 14.64,12.55 14.64,20.92c0,10.9 -7.38,16.07 -15.85,16.07c-5.62,-0.01 -9.69,-2.32 -12,-3.97z" id="svg_5"></path> <path d="m177.35,85.87c-1.43,-1.1 -2.31,-0.77 -2.97,0.55l-0.88,2.2l-2.42,0l-0.77,-23.78l2.42,0c1.65,13.1 7.93,20.37 15.52,20.37c5.17,0 7.93,-3.52 7.93,-9.14c0,-4.95 -2.31,-7.05 -12.55,-15.3c-9.36,-7.38 -12.55,-11.67 -12.55,-17.95c0,-9.14 6.61,-15.08 15.3,-15.08c4.95,0 8.37,2.09 10.35,3.74c1.43,1.32 2.53,0.77 2.86,-0.55l0.66,-2.42l2.53,0l0.44,19.27l-2.42,0c-1.32,-8.59 -6.17,-15.41 -13.54,-15.41c-4.4,0 -7.27,2.97 -7.27,7.38c0,4.62 2.86,7.05 10.57,13.1c9.91,7.82 14.64,12.55 14.64,20.92c0,10.9 -7.38,16.07 -15.85,16.07c-5.61,-0.01 -9.69,-2.32 -12,-3.97z" id="svg_6"></path> <path d="m317.61,2.64c-10.24,0 -11.78,1.98 -11.78,8.7l0,65.39c0,6.72 1.54,8.7 11.78,8.7l0,2.64l-35.23,0l0,-2.64c9.69,0 11.12,-1.98 11.12,-8.7l0,-32.81l-34.13,0l0,32.81c0,6.72 1.32,8.7 11.01,8.7l0,2.64l-35.12,0l0,-2.64c10.24,0 11.67,-1.98 11.67,-8.7l0,-65.39c0,-6.71 -1.43,-8.7 -11.67,-8.7l0,-2.64l35.12,0l0,2.64c-9.69,0 -11.01,1.98 -11.01,8.7l0,27.85l34.13,0l0,-27.85c0,-6.71 -1.43,-8.7 -11.12,-8.7l0,-2.64l35.23,0l0,2.64z" id="svg_7"></path> <path d="m354.49,87.96l-0.22,-9.36l-0.33,-0.11c-3.74,5.95 -9.03,11.34 -16.84,11.34c-7.6,0 -12,-6.17 -12,-15.85l0,-31.05c0,-7.16 -0.33,-8.48 -7.05,-6.39l-0.77,-2.42l16.96,-5.5l1.54,1.43l0,42.83c0,6.5 1.98,9.58 6.17,9.58c4.4,0 8.81,-3.74 12.33,-8.48l0,-31.05c0,-7.16 -0.22,-8.48 -7.05,-6.39l-0.77,-2.42l17.06,-5.5l1.43,1.43l0,44.92c0,7.38 0.22,8.81 7.05,6.27l0.99,2.53l-16.29,6.06l-2.21,-1.87z" id="svg_8"></path> <path d="m377.83,85.43c6.38,0 7.49,-1.65 7.49,-8.7l0,-33.91c0,-7.38 0,-8.92 -6.61,-6.17l-1.1,-2.53l8.81,-3.52l7.49,-3.08l2.09,1.65l0,10.13l0.33,0c4.95,-6.83 9.91,-11.56 17.39,-11.56c7.82,0 12.11,5.61 12.11,15.96l0,33.03c0,7.05 0.99,8.7 7.27,8.7l0,2.64l-24.66,0l0,-2.64c5.83,0 6.72,-1.65 6.72,-8.7l0,-32.37c0,-6.05 -2.31,-8.92 -6.5,-8.92c-4.51,0 -8.48,3.08 -12.66,8.48l0,32.81c0,7.05 0.88,8.7 6.72,8.7l0,2.64l-24.88,0l0,-2.64l-0.01,0z" id="svg_9"></path> <path d="m470.63,63.41c0,17.17 -3.41,26.42 -14.2,26.42c-8.59,0 -13.1,-5.17 -13.1,-20.59l0,-35.01l-7.71,0l0,-4.07c8.04,-0.22 13.1,-6.17 14.2,-16.51l3.96,0l0,16.07l13.21,0l0,4.51l-12.99,0l0,32.15c0,9.8 0.99,16.29 6.17,16.29c4.95,0 7.38,-6.17 7.38,-19.27l3.08,0l0,0.01z" id="svg_10"></path> <path d="m493.75,76.73c0,7.05 1.1,8.7 7.82,8.7l0,2.64l-26.2,0l0,-2.64c6.72,0 7.82,-1.65 7.82,-8.7l0,-33.91c0,-7.38 -0.11,-8.92 -6.5,-6.28l-0.99,-2.53l16.18,-6.5l1.87,1.65l0,47.57zm-13.32,-66.49c0,-3.96 2.97,-6.83 7.16,-6.83c4.07,0 7.05,2.86 7.05,6.83c0,3.85 -2.97,6.72 -7.05,6.72c-4.19,-0.01 -7.16,-2.87 -7.16,-6.72z" id="svg_11"></path> <path d="m507.07,85.43c6.38,0 7.49,-1.65 7.49,-8.7l0,-33.91c0,-7.38 0,-8.92 -6.61,-6.17l-1.1,-2.53l8.81,-3.52l7.49,-3.08l2.09,1.65l0,10.13l0.33,0c4.95,-6.83 9.91,-11.56 17.39,-11.56c7.82,0 12.11,5.61 12.11,15.96l0,33.03c0,7.05 0.99,8.7 7.27,8.7l0,2.64l-24.66,0l0,-2.64c5.83,0 6.72,-1.65 6.72,-8.7l0,-32.37c0,-6.05 -2.31,-8.92 -6.5,-8.92c-4.51,0 -8.48,3.08 -12.66,8.48l0,32.81c0,7.05 0.88,8.7 6.72,8.7l0,2.64l-24.88,0l0,-2.64l-0.01,0z" id="svg_12"></path> <path d="m600.65,79.26c11.45,0 16.62,3.3 16.62,11.67c0,12.22 -13.21,23.12 -31.71,23.12c-11.78,0 -22.02,-4.29 -22.02,-13.32c0,-6.27 4.62,-10.46 11.56,-13.54c-4.51,-1.76 -6.5,-4.84 -6.5,-8.59c0,-5.06 3.52,-8.7 8.48,-11.78c-5.39,-3.63 -8.48,-9.91 -8.48,-17.5c0,-12.33 7.93,-21.47 20.59,-21.47c4.18,0 7.82,0.99 10.9,2.86c4.4,-2.53 9.14,-3.63 12.55,-3.63c3.19,0 4.07,1.54 4.07,3.3c0,2.09 -1.32,3.74 -3.96,3.74c-4.18,0 -7.16,-2.2 -10.35,-1.76c4.4,3.74 6.94,9.47 6.94,16.62c0,12.55 -7.93,21.25 -20.26,21.25c-3.41,0 -6.5,-0.66 -9.14,-1.87c-2.2,1.76 -3.63,3.52 -3.63,5.72c0,2.86 0.88,5.17 11.56,5.17l12.78,0l0,0.01zm10.46,15.09c0,-4.29 -2.97,-5.28 -10.79,-5.28l-13.65,0c-3.08,0 -5.72,-0.22 -7.93,-0.77c-3.74,2.97 -6.39,6.28 -6.39,9.8c0,4.62 4.29,9.36 15.85,9.36c13.99,-0.01 22.91,-6.95 22.91,-13.11zm-31.71,-48.88c0,9.25 2.97,20.48 11.01,20.48c5.72,0 8.26,-5.5 8.26,-12.88c0,-9.58 -3.3,-21.03 -10.9,-21.03c-6.06,-0.01 -8.37,6.49 -8.37,13.43z" id="svg_13"></path> </g> </g> </g> </svg> 